<?xml version="1.0" encoding="UTF-8" standalone="no"?>
<svg
   xmlns:dc="http://purl.org/dc/elements/1.1/"
   xmlns:cc="http://creativecommons.org/ns#"
   xmlns:rdf="http://www.w3.org/1999/02/22-rdf-syntax-ns#"
   xmlns:svg="http://www.w3.org/2000/svg"
   xmlns="http://www.w3.org/2000/svg"
   xmlns:sodipodi="http://sodipodi.sourceforge.net/DTD/sodipodi-0.dtd"
   xmlns:inkscape="http://www.inkscape.org/namespaces/inkscape"
   viewBox="0 0 123.15 165.5"
   id="svg2438"
   sodipodi:version="0.32"
   inkscape:version="0.46"
   width="190.49184"
   height="255.99998"
   sodipodi:docname="TE.svg"
   inkscape:output_extension="org.inkscape.output.svg.inkscape"
   version="1.0">
  <metadata
     id="metadata2449">
    <rdf:RDF>
      <cc:Work
         rdf:about="">
        <dc:format>image/svg+xml</dc:format>
        <dc:type
           rdf:resource="http://purl.org/dc/dcmitype/StillImage" />
      </cc:Work>
    </rdf:RDF>
  </metadata>
  <defs
     id="defs2447">
    <inkscape:perspective
       sodipodi:type="inkscape:persp3d"
       inkscape:vp_x="0 : 526.18109 : 1"
       inkscape:vp_y="0 : 1000 : 0"
       inkscape:vp_z="744.09448 : 526.18109 : 1"
       inkscape:persp3d-origin="372.04724 : 350.78739 : 1"
       id="perspective2451" />
  </defs>
  <sodipodi:namedview
     inkscape:window-height="544"
     inkscape:window-width="1024"
     inkscape:pageshadow="2"
     inkscape:pageopacity="0.0"
     guidetolerance="10.0"
     gridtolerance="10.0"
     objecttolerance="10.0"
     borderopacity="1.0"
     bordercolor="#666666"
     pagecolor="#ffffff"
     id="base"
     showgrid="false"
     inkscape:zoom="1.3242188"
     inkscape:cx="95.245918"
     inkscape:cy="127.99999"
     inkscape:window-x="-4"
     inkscape:window-y="-4"
     inkscape:current-layer="svg2438" />
  <g
     id="g3332">
    <g
       id="g3314">
      <path
         style="fill:#000000;fill-opacity:1;stroke:none;stroke-width:0.01;stroke-opacity:1"
         d="M 611.15625,610.78125 C 597.66207,610.78126 590.9375,618.4119 590.9375,633.71875 C 590.93748,647.21296 597.66205,653.96875 611.15625,653.96875 C 626.4631,653.96875 634.125,647.21293 634.125,633.71875 C 634.12497,618.41192 626.46309,610.78125 611.15625,610.78125 z M 611.15625,613.78125 C 624.44906,613.57982 631.09375,620.22455 631.09375,633.71875 C 631.09375,645.19892 624.44905,650.9375 611.15625,650.9375 C 599.47472,650.93752 593.65625,645.19889 593.65625,633.71875 C 593.65622,620.22457 599.4747,613.57985 611.15625,613.78125 z"
         transform="matrix(0.1655032,0,0,0.1655032,0,-4.3346417)"
         id="path2462" />
      <path
         style="fill:#000000;fill-opacity:1;stroke:none;stroke-width:0.01;stroke-opacity:1"
         d="M 605.125,621.9375 L 605.125,645.5 L 607.84375,645.5 L 607.84375,633.71875 L 613.875,633.71875 C 617.7017,635.73281 619.73611,637.76721 619.9375,639.78125 L 619.9375,645.5 L 622.65625,645.5 L 622.65625,636.75 L 619.9375,633.71875 L 622.65625,628 C 620.6422,623.97188 617.70169,621.9375 613.875,621.9375 L 605.125,621.9375 z M 607.84375,624.96875 L 613.875,624.96875 C 617.7017,624.96872 619.73611,625.98594 619.9375,628 C 617.72202,629.81266 615.68765,630.79861 613.875,631 L 607.84375,631 L 607.84375,624.96875 z"
         transform="matrix(0.1655032,0,0,0.1655032,0,-4.3346417)"
         id="path2512" />
    </g>
    <g
       id="g3318">
      <path
         style="fill:#ff0000;fill-opacity:1;stroke:none;stroke-width:0.01;stroke-opacity:1"
         d="M 95.85,33.95 C 94.55,37.15 93.6,42.116667 93,48.85 L 110.65,50.75 L 110.65,35.9 L 95.85,33.95"
         id="path2520" />
      <path
         style="fill:#ff0000;fill-opacity:1;stroke:none;stroke-width:0.01;stroke-opacity:1"
         d="M 87.25,10.05 C 78.583333,24.383333 74.75,40.666667 75.75,58.9 L 91.05,53.6 C 90.716667,40.833333 93.9,28.866667 100.6,17.7 L 87.25,10.05"
         id="path2518" />
      <path
         style="fill:#ff0000;fill-opacity:1;stroke:none;stroke-width:0.01;stroke-opacity:1"
         d="M 110.65,53.6 C 92.75,53.6 76.483333,58.716667 61.85,68.95 L 73.35,79 C 84.816667,71.966667 97.25,68.45 110.65,68.45 L 110.65,53.6"
         id="path2516" />
      <path
         style="fill:#ff0000;fill-opacity:1;stroke:none;stroke-width:0.01;stroke-opacity:1"
         d="M 100.15,88.6 L 93.5,72.75 L 79.55,78 C 80.816667,83.8 83.383333,89.883333 87.25,96.25 L 100.15,88.6"
         id="path2514" />
      <path
         style="fill:#ff0000;fill-opacity:1;stroke:none;stroke-width:0.01;stroke-opacity:1"
         d="M 73.8,22.95 L 84.35,8.1 L 71.45,0.5 L 62.35,13.4 L 73.8,22.95"
         id="path2510" />
      <path
         style="fill:#ff0000;fill-opacity:1;stroke:none;stroke-width:0.01;stroke-opacity:1"
         d="M 59.4,35.9 L 47.5,25.35 L 45.55,26.75 C 34.683333,33.183333 22.716667,36.4 9.65,36.4 L 9.65,51.75 C 24.983333,51.75 39.366667,47.916667 52.8,40.25 L 59.4,35.9"
         id="path2508" />
      <path
         style="fill:#ff0000;fill-opacity:1;stroke:none;stroke-width:0.01;stroke-opacity:1"
         d="M 49.85,0 L 36.45,7.65 C 45.383333,22.983333 58,34.616667 74.3,42.55 L 77.65,27.25 C 65.483333,20.55 56.216667,11.466667 49.85,0"
         id="path2506" />
      <path
         style="fill:#ff0000;fill-opacity:1;stroke:none;stroke-width:0.01;stroke-opacity:1"
         d="M 20.65,16.7 L 27.4,32.05 L 41.25,26.75 L 33.55,9.1 L 20.65,16.7"
         id="path2504" />
      <path
         style="fill:#ff0000;fill-opacity:1;stroke:none;stroke-width:0.01;stroke-opacity:1"
         d="M 30.25,52.15 C 30.216667,64.283333 27.016667,76.25 20.65,88.05 L 33.55,95.3 C 41.216667,82.866667 45.05,68.483333 45.05,52.15 L 45.05,46 L 30.25,51.25 L 30.25,52.15"
         id="path2502" />
      <path
         style="fill:#ff0000;fill-opacity:1;stroke:none;stroke-width:0.01;stroke-opacity:1"
         d="M 25.45,71.35 L 28.25,56.05 L 9.65,54.1 L 9.65,69.4 L 25.45,71.35"
         id="path2500" />
      <path
         style="fill:#ff0000;fill-opacity:1;stroke:none;stroke-width:0.01;stroke-opacity:1"
         d="M 43.6,77.55 C 55.766667,84.55 65.05,93.65 71.45,104.85 L 84.8,97.25 C 75.866667,81.55 63.1,69.866667 46.5,62.2 L 43.6,77.55"
         id="path2498" />
      <path
         style="fill:#ff0000;fill-opacity:1;stroke:none;stroke-width:0.01;stroke-opacity:1"
         d="M 47.05,81.9 L 36,96.75 L 49.4,104.4 L 58.95,91.5 L 47.05,81.9"
         id="path2496" />
    </g>
    <g
       id="g3294">
      <path
         style="fill:#000000;fill-opacity:1;stroke:none;stroke-width:0.01;stroke-opacity:1"
         d="M 56.85,132.35 C 57.35,134.28333 57.6,136.05 57.6,137.65 L 60,125.75 L 63.65,125.75 L 65.25,133.1 L 65.8,137.65 C 66.133333,134.98333 66.466667,133.13333 66.8,132.1 L 68.15,125.75 L 71.55,125.75 L 67.65,142.35 L 63.95,142.35 L 62.65,135.75 C 62.283333,134.35 62.016667,132.76667 61.85,131 L 59.7,142.35 L 55.8,142.35 L 51.85,125.75 L 55.5,125.75 L 56.85,132.35"
         id="path2494" />
      <path
         style="fill:#000000;fill-opacity:1;stroke:none;stroke-width:0.01;stroke-opacity:1"
         d="M 50,125.75 L 50,142.35 L 46.55,142.35 L 46.55,125.75 L 50,125.75"
         id="path2492" />
      <path
         style="fill:#000000;fill-opacity:1;stroke:none;stroke-width:0.01;stroke-opacity:1"
         d="M 217.53125,786 L 186.09375,886.28125 L 206.65625,886.28125 L 213,862.4375 L 243.1875,862.4375 L 249.53125,886.28125 L 271.90625,886.28125 L 240.1875,786 L 217.53125,786 z M 229,808.65625 C 229.80562,816.91392 230.82282,822.65252 232.03125,825.875 C 233.03828,832.11857 235.15251,838.46126 238.375,844.90625 L 217.53125,846.40625 L 229,808.65625 z"
         transform="matrix(0.1655032,0,0,0.1655032,0,-4.3346417)"
         id="path2490" />
      <path
         style="fill:#000000;fill-opacity:1;stroke:none;stroke-width:0.01;stroke-opacity:1"
         d="M 459.5,786 L 427.78125,884.78125 L 448.34375,884.78125 L 454.6875,862.4375 L 484.875,862.4375 L 491.21875,884.78125 L 513.59375,884.78125 L 481.875,786 L 459.5,786 z M 470.375,808.65625 L 473.71875,825.875 C 474.72578,832.11857 476.31577,838.46126 478.53125,844.90625 L 459.5,844.90625 L 470.375,808.65625 z"
         transform="matrix(0.1655032,0,0,0.1655032,0,-4.3346417)"
         id="path2488" />
      <path
         style="fill:#000000;fill-opacity:1;stroke:none;stroke-width:0.01;stroke-opacity:1"
         d="M 31.55,128.65 L 27.6,128.65 L 27.6,142.35 L 24.15,142.35 L 24.15,128.65 L 20.25,128.65 L 20.25,125.75 L 32.1,125.75 L 31.55,128.65"
         id="path2484" />
      <path
         style="fill:#000000;fill-opacity:1;stroke:none;stroke-width:0.01;stroke-opacity:1"
         d="M 31.85,151.05 L 29.2,152.35 L 28.15,156.55 L 28.95,161 C 29.45,162.23333 30.5,162.86667 32.1,162.9 L 35,161.85 L 36.3,163.95 C 35.066667,164.98333 33.583333,165.5 31.85,165.5 C 29.716667,165.5 27.866667,164.71667 26.3,163.15 C 25.066667,161.88333 24.45,159.95 24.45,157.35 L 25.5,152.1 C 26.9,149.63333 29.016667,148.4 31.85,148.4 L 36,149.7 L 34.45,151.85 L 31.85,151.05"
         id="path2480" />
      <path
         style="fill:#000000;fill-opacity:1;stroke:none;stroke-width:0.01;stroke-opacity:1"
         d="M 38.4,148.65 L 47.9,148.65 L 47.35,151.3 L 41.85,151.3 L 41.85,155.25 L 46.55,155.25 L 46.55,157.85 L 41.85,157.85 L 41.85,162.35 L 48.15,162.35 L 48.15,165.25 L 38.4,165.25 L 38.4,148.65"
         id="path2478" />
      <path
         style="fill:#000000;fill-opacity:1;stroke:none;stroke-width:0.01;stroke-opacity:1"
         d="M 10.75,148.65 L 14.75,148.65 L 17.1,153.15 L 19.2,148.65 L 23.15,148.65 L 18.9,156.3 L 23.95,165.25 L 19.95,165.25 L 17.1,159.5 L 14.2,165.25 L 10,165.25 L 15.25,156.3 L 10.75,148.65"
         id="path2476" />
      <path
         style="fill:#000000;fill-opacity:1;stroke:none;stroke-width:0.01;stroke-opacity:1"
         d="M 3.4,157.85 L 3.4,162.35 L 9.75,162.35 L 9.75,165.25 L 0,165.25 L 0,148.65 L 9.45,148.65 L 8.95,151.55 L 3.4,151.55 L 3.4,155.25 L 8.15,155.25 L 8.15,157.85 L 3.4,157.85"
         id="path2474" />
      <path
         style="fill:#000000;fill-opacity:1;stroke:none;stroke-width:0.01;stroke-opacity:1"
         d="M 76.55,155.25 L 81.3,155.25 L 81.3,157.85 L 76.55,157.85 L 76.55,162.35 L 82.85,162.35 L 82.85,165 L 73.15,165.25 L 73.15,148.65 L 82.65,148.65 L 82.1,151.3 L 76.55,151.3 L 76.55,155.25"
         id="path2472" />
      <path
         style="fill:#000000;fill-opacity:1;stroke:none;stroke-width:0.01;stroke-opacity:1"
         d="M 65.25,148.65 L 65.25,162.35 L 71.05,162.35 L 70.55,165.25 L 61.85,165.25 L 61.85,148.65 L 65.25,148.65"
         id="path2470" />
      <path
         style="fill:#000000;fill-opacity:1;stroke:none;stroke-width:0.01;stroke-opacity:1"
         d="M 59.7,162.35 L 59.2,165.25 L 50.5,165.25 L 50.5,148.65 L 53.95,148.65 L 53.95,162.35 L 59.7,162.35"
         id="path2468" />
      <path
         style="fill:#000000;fill-opacity:1;stroke:none;stroke-width:0.01;stroke-opacity:1"
         d="M 97.9,125.75 L 97.9,142.1 L 94.45,142.1 L 89.45,130.5 L 89.7,142.1 L 86.6,142.1 L 86.6,125.75 L 90.25,125.75 L 93.45,132.35 L 95.25,137.1 L 94.7,125.75 L 97.9,125.75"
         id="path2460" />
      <path
         style="fill:#000000;fill-opacity:1;stroke:none;stroke-width:0.01;stroke-opacity:1"
         d="M 116.8,154.95 L 121.6,154.95 L 121.6,157.85 L 116.8,157.85 L 116.8,162.1 L 123.15,162.1 L 123.15,165 L 113.65,165 L 113.65,148.4 L 122.85,148.4 L 122.6,151.3 L 116.8,151.3 L 116.8,154.95"
         id="path2458" />
      <path
         style="fill:#000000;fill-opacity:1;stroke:none;stroke-width:0.01;stroke-opacity:1"
         d="M 106.8,150.75 C 105.6,150.75 104.73333,151.28333 104.2,152.35 C 103.46667,153.05 103.11667,154.45 103.15,156.55 L 103.95,161 C 104.65,162.23333 105.7,162.86667 107.1,162.9 L 110,161.55 L 111.55,163.65 C 110.31667,164.71667 108.73333,165.25 106.8,165.25 C 104.53333,165.25 102.8,164.55 101.6,163.15 C 100.2,161.41667 99.5,159.4 99.5,157.1 L 100.5,152.1 C 101.9,149.46667 104,148.15 106.8,148.15 L 111,149.45 L 109.5,151.85 L 106.8,150.75"
         id="path2456" />
      <path
         style="fill:#000000;fill-opacity:1;stroke:none;stroke-width:0.01;stroke-opacity:1"
         d="M 96.6,148.65 L 96.6,165 L 93.15,165 L 88.15,153.4 L 88.4,165 L 85.25,165 L 85.25,148.65 L 88.95,148.65 L 92.1,155.25 L 93.7,159.75 L 93.45,148.65 L 96.6,148.65"
         id="path2444" />
    </g>
  </g>
</svg>
